<?xml version="1.0" encoding="UTF-8" standalone="no"?>
<svg xmlns="http://www.w3.org/2000/svg" width="1600" height="1600" viewBox="0 0 1000 1000">
  <defs>
    <linearGradient id="blueGrad" x1="0" y1="0" x2="1" y2="1">
      <stop offset="0%" stop-color="#6BB9EA"/>
      <stop offset="100%" stop-color="#245B91"/>
    </linearGradient>
  </defs>

  <!-- Transparent background -->
  <g id="SGD-logo" fill="none" stroke-linecap="round" stroke-linejoin="round">

    <!-- Circular academic frame -->
    <circle cx="500" cy="405" r="305" stroke="#5DAEE6" stroke-width="18"/>

    <!-- Graduation cap -->
    <path d="M335 255 L500 180 L665 255 L500 322 Z" fill="url(#blueGrad)" stroke="#245B91" stroke-width="6"/>
    <path d="M405 285 Q500 250 595 285 L595 335 Q500 305 405 335 Z" fill="url(#blueGrad)" stroke="#245B91" stroke-width="6"/>
    <path d="M640 255 L640 340" stroke="#245B91" stroke-width="12"/>
    <circle cx="640" cy="355" r="12" fill="#245B91" stroke="none"/>

    <!-- Central person -->
    <circle cx="500" cy="365" r="43" fill="url(#blueGrad)" stroke="none"/>
    <path d="M415 510 Q420 415 500 415 Q580 415 585 510 L500 590 Z" fill="url(#blueGrad)" stroke="none"/>

    <!-- Left person -->
    <circle cx="365" cy="400" r="30" fill="url(#blueGrad)" stroke="none"/>
    <path d="M315 500 Q320 435 365 435 Q410 435 420 500 L365 525 Z" fill="url(#blueGrad)" stroke="none"/>

    <!-- Right person -->
    <circle cx="635" cy="400" r="30" fill="url(#blueGrad)" stroke="none"/>
    <path d="M580 500 Q590 435 635 435 Q680 435 685 500 L635 525 Z" fill="url(#blueGrad)" stroke="none"/>

    <!-- Open book -->
    <path d="M180 535 Q335 540 500 655 Q390 585 275 575 L180 575 Z" fill="url(#blueGrad)" stroke="none"/>
    <path d="M820 535 Q665 540 500 655 Q610 585 725 575 L820 575 Z" fill="url(#blueGrad)" stroke="none"/>
    <path d="M500 655 Q390 565 210 555" stroke="#F6F6F0" stroke-width="14"/>
    <path d="M500 655 Q610 565 790 555" stroke="#F6F6F0" stroke-width="14"/>
    <path d="M175 575 L500 680 L825 575" stroke="#245B91" stroke-width="10"/>

    <!-- SGD wordmark -->
    
  </g>
</svg>